<svg width="568" height="97" viewBox="0 0 568 97" fill="none" xmlns="http://www.w3.org/2000/svg">
<path d="M27.168 37.08H28.32L35.424 24.024L42.624 8.184L54.336 9.912L45.504 25.944L33.024 50.328L34.08 75H20.64L21.6 51.96L9.504 27.384L0.288 10.584L13.824 8.184L20.064 22.776L27.168 37.08ZM69.8243 75C66.0483 75 62.9443 73.816 60.5123 71.448C58.1443 69.016 56.9603 65.784 56.9603 61.752C56.9603 57.656 58.8163 54.136 62.5283 51.192C66.2403 48.184 70.7523 46.68 76.0643 46.68H82.5923V45.048C82.5923 41.912 81.9523 39.768 80.6723 38.616C79.3923 37.464 76.9923 36.888 73.4723 36.888C72.0003 36.888 70.2403 37.208 68.1923 37.848C66.2083 38.424 63.9683 39.352 61.4723 40.632L58.6883 33.048C61.4403 31.128 64.7683 29.4 68.6723 27.864C72.6403 26.328 75.9043 25.56 78.4643 25.56C88.5123 25.56 93.5363 30.424 93.5363 40.152V58.968C93.5363 62.552 94.6563 66.552 96.8963 70.968L86.7203 75.288C85.1203 72.216 83.9363 69.464 83.1683 67.032C79.6483 72.344 75.2003 75 69.8243 75ZM73.8563 65.208C76.4163 65.208 79.3283 63.896 82.5923 61.272V54.84C79.2003 54.072 76.4483 53.688 74.3363 53.688C70.3043 53.688 68.2883 55.48 68.2883 59.064C68.2883 60.92 68.8003 62.424 69.8243 63.576C70.8483 64.664 72.1923 65.208 73.8563 65.208ZM101.864 84.504C101.864 78.872 107.112 74.456 117.608 71.256C115.112 69.976 113.864 68.312 113.864 66.264C113.864 65.432 114.184 64.6 114.824 63.768C115.464 62.936 116.392 62.072 117.608 61.176V60.408C113 60.408 109.32 59.128 106.568 56.568C103.88 54.008 102.536 50.584 102.536 46.296C102.536 40.728 104.808 35.896 109.352 31.8C113.896 27.64 119.272 25.56 125.48 25.56C127.08 25.56 129.416 25.88 132.488 26.52C135.56 27.16 138.568 27.48 141.512 27.48H148.904L147.944 35.832L140.744 34.968C141.384 36.824 141.704 38.936 141.704 41.304C141.704 43.672 141.128 46.04 139.976 48.408C138.888 50.712 137.544 52.568 135.944 53.976C134.408 55.384 132.84 56.632 131.24 57.72C129.704 58.744 128.36 59.672 127.208 60.504C126.12 61.272 125.576 61.976 125.576 62.616C125.576 63.832 126.856 64.888 129.416 65.784C136.2 68.536 140.776 70.872 143.144 72.792C145.576 74.712 146.792 77.08 146.792 79.896C146.792 84.632 144.392 88.504 139.592 91.512C134.856 94.584 129.192 96.12 122.6 96.12C116.008 96.12 110.888 95.064 107.24 92.952C103.656 90.84 101.864 88.024 101.864 84.504ZM130.856 44.184C130.856 41.048 130.152 38.744 128.744 37.272C127.336 35.8 125.128 35.064 122.12 35.064C116.296 35.064 113.384 37.944 113.384 43.704C113.384 49.4 116.488 52.248 122.696 52.248C128.136 52.248 130.856 49.56 130.856 44.184ZM134.312 81.336C134.312 80.184 133.704 79.096 132.488 78.072C131.272 77.112 129.096 75.96 125.96 74.616C121.288 75.896 118.056 77.08 116.264 78.168C114.536 79.256 113.672 80.6 113.672 82.2C113.672 83.8 114.536 85.08 116.264 86.04C118.056 87.064 120.52 87.576 123.656 87.576C126.792 87.576 129.352 87 131.336 85.848C133.32 84.696 134.312 83.192 134.312 81.336ZM163.574 75C159.798 75 156.694 73.816 154.262 71.448C151.894 69.016 150.71 65.784 150.71 61.752C150.71 57.656 152.566 54.136 156.278 51.192C159.99 48.184 164.502 46.68 169.814 46.68H176.342V45.048C176.342 41.912 175.702 39.768 174.422 38.616C173.142 37.464 170.742 36.888 167.222 36.888C165.75 36.888 163.99 37.208 161.942 37.848C159.958 38.424 157.718 39.352 155.222 40.632L152.438 33.048C155.19 31.128 158.518 29.4 162.422 27.864C166.39 26.328 169.654 25.56 172.214 25.56C182.262 25.56 187.286 30.424 187.286 40.152V58.968C187.286 62.552 188.406 66.552 190.646 70.968L180.47 75.288C178.87 72.216 177.686 69.464 176.918 67.032C173.398 72.344 168.95 75 163.574 75ZM167.606 65.208C170.166 65.208 173.078 63.896 176.342 61.272V54.84C172.95 54.072 170.198 53.688 168.086 53.688C164.054 53.688 162.038 55.48 162.038 59.064C162.038 60.92 162.55 62.424 163.574 63.576C164.598 64.664 165.942 65.208 167.606 65.208ZM228.926 45.048H229.886L243.902 8.568L257.15 8.952L257.534 50.232L259.358 75H246.398L246.878 50.04L245.822 24.792L234.302 56.568L222.494 57.144L211.742 24.792L210.878 50.04L211.55 75H199.646L200.99 51.672L201.566 10.488L216.83 8.088L228.926 45.048ZM282.213 75C278.757 75 275.941 73.88 273.765 71.64C271.653 69.336 270.597 66.328 270.597 62.616L271.173 51.576L270.117 28.536L282.981 26.136L281.733 55.32C281.733 58.072 282.213 60.088 283.173 61.368C284.197 62.648 285.797 63.288 287.973 63.288C290.149 63.288 293.157 62.2 296.997 60.024V54.264L295.941 29.016L308.901 26.616L307.749 50.616L307.845 58.488C307.845 62.584 308.901 66.712 311.013 70.872L301.029 75.288C298.917 71.128 297.637 67.8 297.189 65.304C291.429 71.768 286.437 75 282.213 75ZM347.663 50.712C347.663 46.296 347.279 43.352 346.511 41.88C345.743 40.408 343.951 39.672 341.135 39.672C338.319 39.672 335.119 40.792 331.535 43.032V50.04L332.591 72.6L319.631 75L320.783 51.672L319.631 3.096L332.783 0.695995L331.535 25.56V36.792C332.495 35.512 333.583 34.264 334.799 33.048C336.015 31.832 337.903 30.456 340.463 28.92C343.023 27.384 345.743 26.616 348.623 26.616C351.567 26.616 354.031 27.768 356.015 30.072C357.999 32.312 358.991 35.384 358.991 39.288L358.415 50.04L359.471 73.08L346.511 75.48L347.663 50.712ZM367.188 54.936C367.188 46.744 369.396 39.8 373.812 34.104C378.228 28.408 383.38 25.56 389.268 25.56C395.22 25.56 399.828 27.48 403.092 31.32C406.42 35.16 408.084 40.248 408.084 46.584C408.084 55.032 405.94 62.072 401.652 67.704C397.428 73.272 392.084 76.056 385.62 76.056C380.308 76.056 375.892 74.072 372.372 70.104C368.916 66.072 367.188 61.016 367.188 54.936ZM397.332 51.576C397.332 42.296 394.164 37.656 387.828 37.656C381.236 37.656 377.94 42.008 377.94 50.712C377.94 55.256 378.868 58.808 380.724 61.368C382.58 63.928 385.012 65.208 388.02 65.208C391.092 65.208 393.396 64.056 394.932 61.752C396.532 59.384 397.332 55.992 397.332 51.576ZM444.221 50.712C444.221 46.296 443.837 43.352 443.069 41.88C442.301 40.408 440.509 39.672 437.693 39.672C434.877 39.672 431.677 40.792 428.093 43.032V50.04L429.149 72.6L416.285 75L417.437 51.672C417.181 43.096 416.477 35.416 415.325 28.632L426.941 26.136C427.389 29.848 427.709 33.464 427.901 36.984C428.861 35.704 429.949 34.456 431.165 33.24C432.381 31.96 434.301 30.552 436.925 29.016C439.549 27.416 442.205 26.616 444.893 26.616C447.581 26.616 449.853 27.48 451.709 29.208C453.565 30.936 454.749 33.304 455.261 36.312C460.573 29.848 465.949 26.616 471.389 26.616C474.781 26.616 477.469 27.768 479.453 30.072C481.437 32.312 482.429 35.384 482.429 39.288L481.853 50.04L482.909 73.08L469.949 75.48L471.101 50.712C471.101 46.296 470.717 43.352 469.949 41.88C469.181 40.408 467.421 39.672 464.669 39.672C461.917 39.672 458.813 40.728 455.357 42.84L454.973 50.04L456.029 73.08L443.069 75.48L444.221 50.712ZM490.563 54.936C490.563 46.744 492.771 39.8 497.187 34.104C501.603 28.408 506.755 25.56 512.643 25.56C518.595 25.56 523.203 27.48 526.467 31.32C529.795 35.16 531.459 40.248 531.459 46.584C531.459 55.032 529.315 62.072 525.027 67.704C520.803 73.272 515.459 76.056 508.995 76.056C503.683 76.056 499.267 74.072 495.747 70.104C492.291 66.072 490.563 61.016 490.563 54.936ZM520.707 51.576C520.707 42.296 517.539 37.656 511.203 37.656C504.611 37.656 501.315 42.008 501.315 50.712C501.315 55.256 502.243 58.808 504.099 61.368C505.955 63.928 508.387 65.208 511.395 65.208C514.467 65.208 516.771 64.056 518.307 61.752C519.907 59.384 520.707 55.992 520.707 51.576ZM538.7 28.632L550.316 26.136C550.892 31.064 551.276 35.736 551.468 40.152C557.292 31.128 562.764 26.616 567.884 26.616L566.828 41.592C563.116 41.592 560.172 41.944 557.996 42.648C555.884 43.288 553.708 44.6 551.468 46.584V50.04L552.524 72.6L539.66 75L540.812 51.672C540.556 43.096 539.852 35.416 538.7 28.632Z" fill="white"/>
</svg>
